<?xml version="1.0" encoding="UTF-8" standalone="no"?>
<!-- Created with Inkscape (http://www.inkscape.org/) -->

<svg
   xmlns:dc="http://purl.org/dc/elements/1.1/"
   xmlns:cc="http://creativecommons.org/ns#"
   xmlns:rdf="http://www.w3.org/1999/02/22-rdf-syntax-ns#"
   xmlns:svg="http://www.w3.org/2000/svg"
   xmlns="http://www.w3.org/2000/svg"
   xmlns:xlink="http://www.w3.org/1999/xlink"
   xmlns:sodipodi="http://sodipodi.sourceforge.net/DTD/sodipodi-0.dtd"
   xmlns:inkscape="http://www.inkscape.org/namespaces/inkscape"
   width="64px"
   height="64px"
   id="svg2985"
   version="1.1"
   inkscape:version="0.48.4 r9939"
   sodipodi:docname="icon.svg"
   inkscape:export-filename="/home/jill/kivy/transcendental-fruit/icon.png"
   inkscape:export-xdpi="714.41858"
   inkscape:export-ydpi="714.41858">
  <defs
     id="defs2987">
    <linearGradient
       id="linearGradient3806">
      <stop
         id="stop3820"
         offset="0"
         style="stop-color:#ffffff;stop-opacity:0.96803653" />
      <stop
         id="stop3810"
         offset="0.4270483"
         style="stop-color:#ffffff;stop-opacity:0.82716049" />
      <stop
         style="stop-color:#ffffff;stop-opacity:0.42386831"
         offset="0.48383072"
         id="stop3812" />
      <stop
         style="stop-color:#ffffff;stop-opacity:0.5308642"
         offset="1"
         id="stop3814" />
    </linearGradient>
    <linearGradient
       inkscape:collect="always"
       id="linearGradient7695">
      <stop
         style="stop-color:#343434;stop-opacity:1;"
         offset="0"
         id="stop7697" />
      <stop
         style="stop-color:#343434;stop-opacity:0;"
         offset="1"
         id="stop7699" />
    </linearGradient>
    <linearGradient
       id="linearGradient7685">
      <stop
         id="stop7687"
         offset="0"
         style="stop-color:#fdfdfd;stop-opacity:1;" />
      <stop
         style="stop-color:#b4b4b4;stop-opacity:1;"
         offset="0.43835616"
         id="stop7689" />
      <stop
         id="stop7691"
         offset="0.52298743"
         style="stop-color:#e0e0e0;stop-opacity:1;" />
      <stop
         id="stop7693"
         offset="1"
         style="stop-color:#a9a9a9;stop-opacity:1;" />
    </linearGradient>
    <linearGradient
       id="linearGradient3797">
      <stop
         style="stop-color:#494949;stop-opacity:1;"
         offset="0"
         id="stop3799" />
      <stop
         id="stop3807"
         offset="0.71232879"
         style="stop-color:#2c2c2c;stop-opacity:1;" />
      <stop
         style="stop-color:#bcbcbc;stop-opacity:0.97692305;"
         offset="1"
         id="stop3801" />
    </linearGradient>
    <linearGradient
       id="linearGradient3778">
      <stop
         id="stop3780"
         offset="0"
         style="stop-color:#fdfdfd;stop-opacity:1;" />
      <stop
         style="stop-color:#454545;stop-opacity:1;"
         offset="0.45502582"
         id="stop3782" />
      <stop
         id="stop3784"
         offset="0.52298743"
         style="stop-color:#c6c6c6;stop-opacity:1;" />
      <stop
         id="stop3786"
         offset="1"
         style="stop-color:#333333;stop-opacity:1;" />
    </linearGradient>
    <linearGradient
       id="linearGradient3763">
      <stop
         style="stop-color:#fdfdfd;stop-opacity:1;"
         offset="0"
         id="stop3765" />
      <stop
         id="stop3771"
         offset="0.43835616"
         style="stop-color:#6e6e6e;stop-opacity:1;" />
      <stop
         style="stop-color:#c6c6c6;stop-opacity:1;"
         offset="0.52298743"
         id="stop3773" />
      <stop
         style="stop-color:#333333;stop-opacity:1;"
         offset="1"
         id="stop3767" />
    </linearGradient>
    <linearGradient
       inkscape:collect="always"
       xlink:href="#linearGradient3763"
       id="linearGradient3769"
       x1="-34.24618"
       y1="0.20181942"
       x2="35.099668"
       y2="0.20181942"
       gradientUnits="userSpaceOnUse" />
    <linearGradient
       inkscape:collect="always"
       xlink:href="#linearGradient3778"
       id="linearGradient3776"
       gradientUnits="userSpaceOnUse"
       x1="-34.24618"
       y1="0.20181942"
       x2="35.099668"
       y2="0.20181942" />
    <linearGradient
       inkscape:collect="always"
       xlink:href="#linearGradient3778"
       id="linearGradient3792"
       gradientUnits="userSpaceOnUse"
       x1="-34.24618"
       y1="0.20181942"
       x2="35.099668"
       y2="0.20181942"
       gradientTransform="matrix(0,0.92291034,-1.023706,0,32.206603,31.606155)" />
    <linearGradient
       inkscape:collect="always"
       xlink:href="#linearGradient3797"
       id="linearGradient3803"
       x1="-11.636156"
       y1="32.475197"
       x2="28.591827"
       y2="26.659927"
       gradientUnits="userSpaceOnUse" />
    <linearGradient
       inkscape:collect="always"
       xlink:href="#linearGradient3778"
       id="linearGradient3816"
       gradientUnits="userSpaceOnUse"
       gradientTransform="matrix(0,0.92291034,-1.023706,0,32.206603,31.606155)"
       x1="-34.246181"
       y1="0.20181942"
       x2="35.099667"
       y2="0.20181942" />
    <linearGradient
       inkscape:collect="always"
       xlink:href="#linearGradient7685"
       id="linearGradient7683"
       x1="26"
       y1="4.6150246"
       x2="26.06398"
       y2="59.615025"
       gradientUnits="userSpaceOnUse" />
    <linearGradient
       inkscape:collect="always"
       xlink:href="#linearGradient7695"
       id="linearGradient7701"
       x1="66.593193"
       y1="60.058346"
       x2="27.695301"
       y2="19.085899"
       gradientUnits="userSpaceOnUse" />
    <linearGradient
       inkscape:collect="always"
       xlink:href="#linearGradient7685"
       id="linearGradient7703"
       gradientUnits="userSpaceOnUse"
       x1="26"
       y1="4.6150246"
       x2="26.06398"
       y2="59.615025" />
    <linearGradient
       inkscape:collect="always"
       xlink:href="#linearGradient7685"
       id="linearGradient7705"
       gradientUnits="userSpaceOnUse"
       x1="26"
       y1="4.6150246"
       x2="26.06398"
       y2="59.615025" />
    <linearGradient
       inkscape:collect="always"
       xlink:href="#linearGradient7685"
       id="linearGradient7707"
       gradientUnits="userSpaceOnUse"
       x1="26"
       y1="4.6150246"
       x2="26.06398"
       y2="59.615025" />
    <linearGradient
       inkscape:collect="always"
       xlink:href="#linearGradient7685"
       id="linearGradient7711"
       gradientUnits="userSpaceOnUse"
       x1="19.672609"
       y1="27.850033"
       x2="20.151501"
       y2="23.206594" />
    <linearGradient
       inkscape:collect="always"
       xlink:href="#linearGradient7685"
       id="linearGradient7722"
       gradientUnits="userSpaceOnUse"
       x1="29.319286"
       y1="27.538851"
       x2="28.657173"
       y2="46.856514" />
    <radialGradient
       inkscape:collect="always"
       xlink:href="#linearGradient3806"
       id="radialGradient3816"
       cx="37.32618"
       cy="14.239595"
       fx="37.32618"
       fy="14.239595"
       r="20.90699"
       gradientTransform="matrix(3.0788359,-0.46156869,0.37038799,2.4706262,-85.63042,-19.934655)"
       gradientUnits="userSpaceOnUse" />
    <radialGradient
       inkscape:collect="always"
       xlink:href="#linearGradient3806"
       id="radialGradient3800"
       gradientUnits="userSpaceOnUse"
       gradientTransform="matrix(3.0788359,-0.46156869,0.37038799,2.4706262,-85.63042,-19.934655)"
       cx="37.32618"
       cy="14.239595"
       fx="37.32618"
       fy="14.239595"
       r="20.90699" />
    <radialGradient
       inkscape:collect="always"
       xlink:href="#linearGradient3806"
       id="radialGradient3802"
       gradientUnits="userSpaceOnUse"
       gradientTransform="matrix(3.0788359,-0.46156869,0.37038799,2.4706262,-85.63042,-19.934655)"
       cx="37.32618"
       cy="14.239595"
       fx="37.32618"
       fy="14.239595"
       r="20.90699" />
    <radialGradient
       inkscape:collect="always"
       xlink:href="#linearGradient3806"
       id="radialGradient3804"
       gradientUnits="userSpaceOnUse"
       gradientTransform="matrix(3.0788359,-0.46156869,0.37038799,2.4706262,-85.63042,-19.934655)"
       cx="37.32618"
       cy="14.239595"
       fx="37.32618"
       fy="14.239595"
       r="20.90699" />
    <radialGradient
       inkscape:collect="always"
       xlink:href="#linearGradient3806"
       id="radialGradient3806"
       gradientUnits="userSpaceOnUse"
       gradientTransform="matrix(3.0788359,-0.46156869,0.37038799,2.4706262,-85.63042,-19.934655)"
       cx="37.32618"
       cy="14.239595"
       fx="37.32618"
       fy="14.239595"
       r="20.90699" />
    <radialGradient
       inkscape:collect="always"
       xlink:href="#linearGradient3806"
       id="radialGradient3808"
       gradientUnits="userSpaceOnUse"
       gradientTransform="matrix(3.0788359,-0.46156869,0.37038799,2.4706262,-85.63042,-19.934655)"
       cx="37.32618"
       cy="14.239595"
       fx="37.32618"
       fy="14.239595"
       r="20.90699" />
    <radialGradient
       inkscape:collect="always"
       xlink:href="#linearGradient3806"
       id="radialGradient3815"
       gradientUnits="userSpaceOnUse"
       gradientTransform="matrix(3.0788359,-0.46156869,0.37038799,2.4706262,-85.63042,-19.934655)"
       cx="37.32618"
       cy="14.239595"
       fx="37.32618"
       fy="14.239595"
       r="20.90699" />
    <radialGradient
       inkscape:collect="always"
       xlink:href="#linearGradient3806"
       id="radialGradient3817"
       gradientUnits="userSpaceOnUse"
       gradientTransform="matrix(3.0788359,-0.46156869,0.37038799,2.4706262,-85.63042,-19.934655)"
       cx="37.32618"
       cy="14.239595"
       fx="37.32618"
       fy="14.239595"
       r="20.90699" />
    <radialGradient
       inkscape:collect="always"
       xlink:href="#linearGradient3806"
       id="radialGradient3819"
       gradientUnits="userSpaceOnUse"
       gradientTransform="matrix(3.0788359,-0.46156869,0.37038799,2.4706262,-85.63042,-19.934655)"
       cx="37.32618"
       cy="14.239595"
       fx="37.32618"
       fy="14.239595"
       r="20.90699" />
  </defs>
  <sodipodi:namedview
     id="base"
     pagecolor="#ffffff"
     bordercolor="#666666"
     borderopacity="1.0"
     inkscape:pageopacity="0.0"
     inkscape:pageshadow="2"
     inkscape:zoom="4.1074795"
     inkscape:cx="48.653014"
     inkscape:cy="25.320523"
     inkscape:current-layer="layer1"
     showgrid="true"
     inkscape:document-units="px"
     inkscape:grid-bbox="true"
     inkscape:window-width="1301"
     inkscape:window-height="744"
     inkscape:window-x="65"
     inkscape:window-y="24"
     inkscape:window-maximized="1"
     showguides="true"
     inkscape:guide-bbox="true" />
  <metadata
     id="metadata2990">
    <rdf:RDF>
      <cc:Work
         rdf:about="">
        <dc:format>image/svg+xml</dc:format>
        <dc:type
           rdf:resource="http://purl.org/dc/dcmitype/StillImage" />
        <dc:title></dc:title>
      </cc:Work>
    </rdf:RDF>
  </metadata>
  <g
     id="layer1"
     inkscape:label="Layer 1"
     inkscape:groupmode="layer">
    <path
       sodipodi:type="arc"
       style="fill:url(#linearGradient3803);fill-opacity:1.0;fill-rule:evenodd;stroke:none"
       id="path3795"
       sodipodi:cx="8.6415596"
       sodipodi:cy="26.659927"
       sodipodi:rx="21.538151"
       sodipodi:ry="18.820555"
       d="m 30.17971,26.659927 a 21.538151,18.820555 0 1 1 -43.076301,0 21.538151,18.820555 0 1 1 43.076301,0 z"
       transform="matrix(0,-1.3032407,1.5043581,0,-8.1060768,43.262032)" />
    <path
       style="fill:#313131;fill-opacity:1;fill-rule:evenodd;stroke:none"
       d="m 31.973216,0.14789594 c -15.33071,0 -24.6900327,11.59907906 -29.9434208,21.29800506 -2.54350121,4.69587 14.6127108,20.652612 29.9434208,20.652612 15.33071,0 32.748534,-13.164564 30.168316,-18.65189 C 57.208033,12.954592 47.303926,0.14789594 31.973216,0.14789594 z M 31.729758,5.3997188 c 8.420161,0 16.81479,4.7005312 16.81479,9.2638032 0,4.563271 -8.151171,9.994894 -16.571332,9.994894 -8.420162,0 -16.814792,-4.822977 -16.814792,-9.386248 0,-4.563272 8.151172,-9.8724492 16.571334,-9.8724492 z"
       id="path3809"
       inkscape:connector-curvature="0"
       sodipodi:nodetypes="ssssssssss" />
    <path
       style="fill:url(#linearGradient3816);fill-opacity:1;fill-rule:evenodd;stroke:#8e8e8e;stroke-width:0.472;stroke-miterlimit:4;stroke-opacity:1"
       d="M 32,0 C 14.326888,0 0,14.326888 0,32 0,49.673112 14.326888,64 32,64 49.673111,64 64,49.673112 64,32 64,14.326888 49.673111,0 32,0 z m 0,4.5625 c 15.152271,0 27.597428,14.357052 27.628625,27.305285 C 59.659971,44.878128 47.152271,59.4375 32,59.4375 16.847727,59.4375 4.3713753,47.125607 4.3713753,31.867785 4.3713753,16.609967 16.847727,4.5625 32,4.5625 z"
       id="path2993"
       inkscape:connector-curvature="0"
       sodipodi:nodetypes="ssssssasss" />
    <path
       inkscape:connector-curvature="0"
       id="path7601"
       d="m 37.901129,44.043632 c -1.119469,-0.133003 -3.824481,-0.98453 -4.289508,-1.350319 -0.243052,-0.191185 -0.506578,-0.34761 -0.585612,-0.34761 -0.255556,0 -1.511777,-0.977577 -2.590245,-2.015697 -0.943597,-0.908296 -2.155294,-2.522538 -2.155294,-2.871319 0,-0.07352 -0.152702,-0.418585 -0.339339,-0.766808 -0.99812,-1.862276 -1.408555,-5.171443 -0.923258,-7.443833 0.650539,-3.046127 2.138747,-5.440754 4.803711,-7.729495 0.582239,-0.500042 0.78208,-0.611795 2.379199,-1.330475 1.196935,-0.538604 3.278812,-1.058422 4.604687,-1.149732 1.122006,-0.07727 2.208646,0.03593 4.029101,0.419731 0.810849,0.170949 4.020418,1.738477 4.358008,2.128417 0.135674,0.156713 0.4351,0.406228 0.665394,0.554477 0.558586,0.359588 2.117623,2.304733 2.749562,3.430515 0.279248,0.497471 0.709439,1.496524 0.955984,2.220118 0.392231,1.151176 0.450273,1.582854 0.464345,3.453515 0.0088,1.17584 -0.04126,2.521089 -0.111353,2.989443 l -0.249165,1.155875 1.102206,0.218267 c 1.873059,0.370917 2.356022,2.398448 1.919594,4.052866 -0.38895,1.474443 -1.299035,2.308745 -2.913014,2.670444 -1.003544,0.224898 -1.731717,0.0026 -2.655525,-0.810523 -0.409805,-0.360725 -0.79193,-0.655864 -0.849168,-0.655864 -0.05724,0 -0.590663,0.372955 -1.185391,0.828789 -1.397745,1.071314 -2.346526,1.543561 -3.943121,1.962655 -1.293892,0.339637 -3.973499,0.537248 -5.241798,0.386563 z"
       style="fill:url(#radialGradient3815);fill-opacity:1"
       sodipodi:nodetypes="ssssssssssssssscscssscssss" />
    <g
       style="fill:url(#radialGradient3819);fill-opacity:1"
       id="g7611"
       transform="translate(-3.3390207,2.0955624)">
      <path
         id="rect7609"
         style="fill:url(#radialGradient3817);fill-opacity:1;fill-rule:nonzero;stroke:none"
         d="m 22.623476,39.373476 c 0.979343,-0.979343 2.556191,-0.979343 3.535534,0 l 6.717514,6.717514 c 0.979343,0.979343 0.979343,2.556191 0,3.535534 -0.979343,0.979343 -2.556191,0.979343 -3.535534,0 L 22.623476,42.90901 c -0.979343,-0.979343 -0.979343,-2.556191 0,-3.535534 z m -0.353554,7.071068 7.424622,-7.424622 c 0.979343,-0.979342 2.556191,-0.979342 3.535534,0 0.979342,0.979343 0.979342,2.556191 0,3.535534 l -7.424622,7.424622 c -0.979343,0.979342 -2.556191,0.979342 -3.535534,0 -0.979342,-0.979343 -0.979342,-2.556191 0,-3.535534 z"
         inkscape:connector-curvature="0" />
    </g>
    <g
       style="fill:url(#radialGradient3808);fill-opacity:1"
       id="g7640">
      <path
         id="path7620-3"
         style="fill:url(#radialGradient3806);fill-opacity:1;fill-rule:nonzero;stroke:none"
         d="m 22.625,33.5 c 0,1.311676 -1.119288,2.375 -2.5,2.375 -1.380712,0 -2.5,-1.063324 -2.5,-2.375 0,-1.311676 1.119288,-2.375 2.5,-2.375 1.380712,0 2.5,1.063324 2.5,2.375 z M 22.25,22.375 c 0,1.311676 -1.119288,2.375 -2.5,2.375 -1.380712,0 -2.5,-1.063324 -2.5,-2.375 0,-1.311676 1.119288,-2.375 2.5,-2.375 1.380712,0 2.5,1.063324 2.5,2.375 z m -7.293478,3.375 9.086956,0 C 25.127391,25.75 26,26.622609 26,27.706522 l 0,0.586956 C 26,29.377391 25.127391,30.25 24.043478,30.25 l -9.086956,0 C 13.872609,30.25 13,29.377391 13,28.293478 l 0,-0.586956 C 13,26.622609 13.872609,25.75 14.956522,25.75 z"
         inkscape:connector-curvature="0" />
    </g>
    <path
       inkscape:connector-curvature="0"
       id="path7599"
       d="m 37.412753,43.284216 c -0.0704,-0.162187 -0.08185,-0.34103 -0.02545,-0.397428 0.167,-0.167002 0.301622,0.06758 0.224758,0.391649 -0.06814,0.287291 -0.07701,0.287548 -0.199307,0.0058 z m 6.397252,-0.29896 c -0.06793,-0.10992 -0.0017,-0.283428 0.150613,-0.394838 0.149493,-0.109311 0.271805,-0.246093 0.271805,-0.303957 0,-0.207276 -0.621589,-0.100332 -0.822266,0.141469 -0.295372,0.355901 -0.921255,0.303194 -1.306202,-0.109998 -0.291841,-0.313255 -0.385905,-0.332251 -0.772653,-0.156038 -0.424764,0.193535 -0.705259,0.0608 -0.71433,-0.338045 -0.0056,-0.24744 0.831322,-1.077101 1.389611,-1.37751 0.467099,-0.251342 0.577274,-0.395829 0.509133,-0.667692 -0.105681,-0.421634 0.402281,-0.938784 0.779809,-0.793912 0.301415,0.115663 1.101351,1.115489 1.101351,1.376558 0,0.217074 -0.186332,0.221491 -0.723772,0.01716 -0.314508,-0.119576 -0.477636,-0.09691 -0.667257,0.09271 -0.138038,0.138038 -0.325551,0.204892 -0.416694,0.148562 -0.09114,-0.05633 -0.165715,-0.02405 -0.165715,0.07174 0,0.09579 0.07584,0.174159 0.168524,0.174159 0.09269,0 0.238865,0.18501 0.324836,0.411133 0.182125,0.479024 0.299295,0.496632 1.09431,0.164453 0.324715,-0.135674 0.723619,-0.24668 0.886457,-0.24668 0.472322,0 0.725746,-0.986383 0.429456,-1.671542 -0.359894,-0.83224 -0.661412,-1.155696 -1.262508,-1.354364 -0.593791,-0.196253 -0.726768,-0.387014 -0.509269,-0.73056 0.115621,-0.182628 0.19923,-0.183572 0.484422,-0.0055 0.28067,0.175283 0.475642,0.176695 1.049872,0.0076 0.387854,-0.114204 0.951113,-0.27168 1.251685,-0.349946 0.300573,-0.07827 0.684123,-0.266853 0.852334,-0.419083 0.317839,-0.287638 1.170533,-0.225494 1.595237,0.116261 0.109098,0.08779 0.276947,0.111053 0.372996,0.05169 0.239108,-0.147776 -0.428582,-1.067383 -0.788124,-1.085478 -0.152127,-0.0077 -0.518609,-0.29583 -0.814404,-0.640386 l -0.537808,-0.626466 0.496694,-0.417942 c 0.5192,-0.436877 0.688942,-0.995984 0.251403,-0.828085 -0.140052,0.05374 -0.288717,-0.01903 -0.346501,-0.169614 -0.130278,-0.339507 -0.394924,-0.341757 -0.394924,-0.0034 0,0.342664 -0.321962,0.224629 -0.622684,-0.228284 -0.213699,-0.321846 -0.210765,-0.361006 0.02704,-0.361006 0.414623,0 0.322189,-0.208454 -0.404507,-0.91223 l -0.671246,-0.650075 0.05283,0.644679 c 0.03336,0.407009 -0.02222,0.669696 -0.150738,0.712536 -0.121679,0.04056 -0.166088,0.217199 -0.110393,0.439105 0.07007,0.279194 -0.0151,0.442188 -0.343457,0.657343 -0.533775,0.349742 -0.633287,0.276519 -0.4127,-0.30367 0.249221,-0.655498 0.207517,-0.916595 -0.146401,-0.916595 -0.512498,0 -0.835543,-0.18107 -0.838234,-0.46984 -0.0058,-0.619645 -0.256127,-0.752148 -0.870384,-0.460665 -0.316061,0.149981 -0.600474,0.272693 -0.63203,0.272693 -0.188771,0 -0.01204,-1.04664 0.203559,-1.205542 0.274214,-0.202101 0.709567,-0.921161 0.614979,-1.015748 -0.03038,-0.03038 -0.40675,-0.09657 -0.836387,-0.1471 -0.429638,-0.05053 -0.947308,-0.200371 -1.15038,-0.332984 -0.334617,-0.218515 -0.443467,-0.203409 -1.161435,0.161185 -0.965177,0.490132 -0.99253,0.490859 -1.599015,0.04246 -0.323284,-0.239014 -0.486701,-0.504093 -0.486701,-0.789479 0,-0.472381 -0.340589,-1.314173 -0.532534,-1.316202 -0.06677,-7.07e-4 -0.103773,0.162193 -0.08223,0.361996 0.02624,0.24334 -0.06366,0.384565 -0.272295,0.427751 -0.278508,0.05765 -0.300057,-0.0069 -0.203623,-0.609959 0.08609,-0.538349 0.05796,-0.67443 -0.139384,-0.67443 -0.135976,0 -0.339661,0.148008 -0.452634,0.328906 -0.326413,0.52267 -1.05574,0.431025 -1.426901,-0.179301 -0.305172,-0.501815 -0.304624,-0.515087 0.04353,-1.055332 0.416543,-0.646365 0.963286,-0.941987 1.495244,-0.808474 0.211073,0.05298 0.433211,0.01632 0.493641,-0.08146 0.06043,-0.09778 0.329348,-0.177778 0.597598,-0.177778 0.363662,0 0.525939,0.100515 0.637963,0.395158 0.190575,0.501252 0.416768,0.639961 0.82981,0.508867 0.425822,-0.135151 0.424697,-0.575119 -0.0015,-0.575119 -0.452595,0 -0.429345,-0.568813 0.03659,-0.895167 0.201023,-0.140803 0.53404,-0.256005 0.740039,-0.256005 0.408456,0 0.477301,-0.160366 0.191525,-0.44614 -0.105993,-0.105993 -0.125431,-0.275557 -0.04619,-0.40291 0.07525,-0.120942 0.115313,-0.386404 0.08902,-0.589915 -0.05488,-0.424763 0.189763,-0.47086 0.802306,-0.151173 0.544236,0.284038 0.817955,0.176973 0.817955,-0.319939 0,-0.221424 0.0925,-0.426049 0.205567,-0.454722 0.113061,-0.02867 0.446079,-0.130927 0.740039,-0.227233 0.304217,-0.09967 0.534473,-0.110407 0.534473,-0.02493 0,0.08259 0.153434,0.150168 0.340963,0.150168 0.2365,0 0.323749,0.08817 0.284774,0.287793 -0.03768,0.19296 -0.213194,0.289905 -0.53265,0.294202 -0.581244,0.0078 -0.962605,0.491667 -0.586447,0.744047 0.135674,0.09103 0.528779,0.124317 0.87357,0.07397 0.529386,-0.0773 0.720655,-0.01425 1.229754,0.405396 0.655078,0.539971 0.857247,0.59519 1.140838,0.311598 0.12243,-0.12243 0.134976,-0.317788 0.03696,-0.575586 -0.124154,-0.326549 -0.09693,-0.390251 0.166757,-0.390251 0.74033,0 0.532343,-0.603812 -0.405497,-1.177208 -0.713477,-0.436221 -0.261851,-0.371368 0.888713,0.127617 0.570803,0.24755 1.034318,0.561869 1.090745,0.739656 0.05397,0.170044 0.278583,0.354462 0.49914,0.409818 0.423633,0.106325 1.967527,1.834033 2.261863,2.531159 0.09552,0.226237 0.294577,0.559348 0.442346,0.740247 0.469539,0.57481 1.135105,2.289797 1.345418,3.466783 0.281321,1.574378 0.240427,4.178805 -0.0896,5.706084 -0.31343,1.450479 -1.040033,3.096265 -1.816559,4.11458 -0.664681,0.871643 -0.798779,1.221677 -0.546222,1.425799 0.109965,0.08888 0.40814,0.330156 0.662612,0.536178 0.321591,0.260362 0.429058,0.462197 0.352426,0.661898 -0.160465,0.418161 -0.329901,0.362359 -1.12496,-0.370502 -0.392503,-0.361797 -0.769101,-0.657812 -0.836882,-0.657812 -0.06778,0 -0.466843,0.287681 -0.886803,0.639292 -0.810475,0.678568 -2.497973,1.713328 -3.091777,1.895853 -0.209922,0.06453 -0.405944,0.02896 -0.477371,-0.08661 z m 7.000542,-13.13799 c 0,-0.09045 -0.111005,-0.164454 -0.246679,-0.164454 -0.135674,0 -0.24668,0.074 -0.24668,0.164454 0,0.09045 0.111006,0.164453 0.24668,0.164453 0.135674,0 0.246679,-0.074 0.246679,-0.164453 z M 50.48769,26.901711 c -0.280066,-0.676137 -0.569802,-0.901676 -0.800788,-0.623354 -0.136149,0.164049 -0.0737,0.367768 0.253879,0.828164 0.513579,0.721814 0.87471,0.586574 0.546909,-0.20481 z M 38.802952,26.27041 c -0.0066,-0.321738 -0.264256,-0.509774 -0.495181,-0.361339 -0.212954,0.136884 -0.212428,0.175409 0.0043,0.317708 0.29617,0.194423 0.494279,0.212033 0.490842,0.04363 z M 32.12645,41.400098 c -1.748524,-1.318054 -3.617863,-3.448656 -3.302479,-3.764041 0.04409,-0.04409 0.550378,0.354475 1.125074,0.885711 0.574696,0.531237 1.303915,1.139746 1.620488,1.352244 0.316572,0.212498 0.723593,0.525921 0.904492,0.696494 0.180898,0.170574 0.467482,0.4049 0.636853,0.520724 0.218438,0.149379 0.274967,0.314497 0.194484,0.568079 -0.0624,0.196618 -0.169114,0.357488 -0.237132,0.357488 -0.06802,0 -0.491819,-0.277515 -0.94178,-0.616699 z m 18.451059,0.474317 c -0.07084,-0.114624 -0.08439,-0.252819 -0.03011,-0.307101 0.147181,-0.147179 0.307654,0.06928 0.228161,0.307765 -0.0557,0.167113 -0.09444,0.166983 -0.198051,-6.57e-4 z M 35.154611,41.655 c 0.153489,-0.153489 0.241198,-0.153489 0.394687,0 0.15349,0.153489 0.109636,0.197344 -0.197344,0.197344 -0.306979,0 -0.350833,-0.04386 -0.197343,-0.197344 z m -1.192833,-0.945818 c -0.264189,-0.275753 -0.569816,-0.501369 -0.679171,-0.501369 -0.109355,0 -0.743044,-0.577851 -1.408197,-1.284111 -0.9755,-1.035789 -1.457777,-1.401858 -2.493918,-1.892997 -1.148129,-0.544222 -1.3184,-0.685411 -1.603293,-1.329459 -0.572592,-1.294439 -0.855383,-4.007973 -0.466522,-4.476523 0.110152,-0.132725 0.101092,-0.235573 -0.02777,-0.315213 -0.408097,-0.252217 0.403317,-3.822845 1.005595,-4.425122 0.08603,-0.08603 0.156418,-0.272097 0.156418,-0.413482 0,-0.141384 0.518028,-0.84715 1.151172,-1.568367 0.633145,-0.721217 1.151172,-1.392276 1.151172,-1.491242 0,-0.09896 0.191407,-0.282375 0.42535,-0.407577 0.233942,-0.125202 0.647182,-0.507727 0.91831,-0.850055 0.271129,-0.342328 0.603916,-0.622415 0.739527,-0.622415 0.135611,0 0.221474,0.0555 0.190806,0.12334 -0.301057,0.665931 -0.986875,1.848305 -1.119694,1.930391 -0.09217,0.05696 -0.16758,0.239188 -0.16758,0.404943 0,0.184312 -0.159694,0.341454 -0.411133,0.404561 -0.226123,0.05675 -0.411133,0.175782 -0.411133,0.264508 0,0.08873 -0.133863,0.16132 -0.297474,0.16132 -0.163611,0 -0.435713,0.101082 -0.604672,0.224628 -0.2735,0.199987 -0.283772,0.281181 -0.09365,0.740187 0.285554,0.689388 0.0218,1.008622 -0.83333,1.008622 -0.552404,0 -0.637339,0.04948 -0.635157,0.37002 0.0019,0.280868 0.03787,0.314168 0.149264,0.13821 0.121739,-0.192306 0.231785,-0.196585 0.645761,-0.02511 0.422096,0.174838 0.557326,0.165856 0.877311,-0.05827 0.373225,-0.261417 0.381654,-0.254466 0.628692,0.51847 0.237818,0.744087 0.277858,0.781243 0.797119,0.739706 0.430564,-0.03444 0.565144,0.0267 0.633421,0.287793 0.125829,0.481171 0.36133,0.407131 0.613633,-0.192922 0.208614,-0.496147 0.273889,-0.527434 1.209555,-0.579744 0.688637,-0.0385 1.058751,0.01442 1.218553,0.174217 0.126232,0.126232 0.469586,0.353659 0.763009,0.505394 0.293422,0.151735 0.598759,0.447537 0.678526,0.657337 0.09923,0.260995 0.379296,0.450626 0.886869,0.600495 0.747303,0.220652 0.901487,0.594075 0.169429,0.41034 -0.321688,-0.08074 -0.393192,-0.0355 -0.393192,0.248751 0,0.213617 -0.131788,0.381899 -0.342165,0.436913 -0.253974,0.06642 -0.318133,0.17901 -0.248924,0.43685 0.05128,0.191055 0.09425,0.403502 0.09549,0.472106 0.0013,0.0686 0.140449,0.03842 0.309366,-0.06707 0.168918,-0.10549 0.438121,-0.141532 0.598229,-0.08009 0.24642,0.09456 0.276834,0.250017 0.19812,1.012673 -0.0514,0.498045 -0.02625,0.900964 0.05624,0.900964 0.08208,0 0.293641,0.283072 0.470145,0.629049 l 0.320918,0.629049 -0.491247,0.290187 c -0.578985,0.342015 -0.568777,0.779686 0.02141,0.918043 0.258916,0.0607 0.429657,0.230195 0.46282,0.459456 0.0289,0.199804 0.15841,0.363279 0.287793,0.363279 0.129384,0 0.235242,0.07168 0.235242,0.159292 0,0.08761 -0.10352,0.119568 -0.230045,0.07101 -0.126525,-0.04855 -0.278899,-0.0092 -0.338612,0.08739 -0.05971,0.09661 -0.267008,0.175664 -0.460658,0.175664 -0.258739,0 -0.30352,0.04857 -0.168897,0.183194 0.100756,0.100756 0.58642,0.201115 1.079253,0.223017 1.102073,0.04898 1.32083,0.168449 1.163575,0.635462 -0.06596,0.195898 -0.135238,0.615192 -0.153941,0.931765 -0.01871,0.316572 -0.1454,0.871601 -0.281545,1.233398 -0.284952,0.757236 -0.641836,0.880844 -1.661309,0.575403 -0.561162,-0.168128 -0.683153,-0.15858 -0.847623,0.06635 -0.234299,0.320424 -0.470072,0.347023 -0.352153,0.03973 0.05269,-0.137307 -0.125655,-0.323742 -0.464062,-0.485119 -0.516623,-0.246359 -0.574132,-0.242841 -0.957302,0.05856 -0.224213,0.176367 -0.556329,0.320666 -0.738036,0.320666 -0.181707,0 -0.356246,0.07761 -0.387865,0.172464 -0.03162,0.09486 -0.273642,-0.05315 -0.537831,-0.328907 z m 2.541348,-3.050393 c 0,-0.135674 -0.111006,-0.24668 -0.246679,-0.24668 -0.135674,0 -0.24668,0.111006 -0.24668,0.24668 0,0.135674 0.111006,0.24668 0.24668,0.24668 0.135673,0 0.246679,-0.111006 0.246679,-0.24668 z m -0.493359,-1.078651 c 0,-0.08511 -0.111006,-0.154747 -0.24668,-0.154747 -0.254312,0 -0.32672,0.194048 -0.141515,0.379253 0.131387,0.131387 0.388195,-0.01713 0.388195,-0.224506 z M 38.14514,34.28582 c 0.0013,-0.04615 -0.185487,-0.286662 -0.415271,-0.534473 -0.276145,-0.297811 -0.584756,-0.450566 -0.910277,-0.450566 -0.270871,0 -0.673773,-0.11878 -0.895339,-0.263956 -0.388229,-0.254378 -0.408908,-0.248021 -0.5698,0.175159 -0.260933,0.686304 -0.211975,0.796728 0.3072,0.692893 0.625997,-0.1252 1.540577,0.138406 1.914772,0.551886 0.229481,0.253575 0.331698,0.282456 0.433266,0.122417 0.07311,-0.1152 0.134064,-0.247212 0.135449,-0.29336 z m -3.53655,-3.449076 c 0.326642,-0.271089 0.160799,-0.563772 -0.497264,-0.87758 -0.362253,-0.172747 -0.568356,-0.387747 -0.568356,-0.592892 0,-0.431454 -0.244705,-0.558655 -0.494862,-0.257235 -0.111773,0.134678 -0.333449,0.244869 -0.492614,0.244869 -0.256056,0 -0.267379,0.06157 -0.0983,0.534473 0.392272,1.097153 0.616752,1.308207 1.297789,1.220175 0.342732,-0.0443 0.726854,-0.166616 0.853604,-0.27181 z m 1.483403,-0.0028 c -0.0559,-0.09045 -0.24091,-0.164453 -0.411132,-0.164453 -0.170223,0 -0.355232,0.074 -0.411133,0.164453 -0.05946,0.0962 0.111163,0.164454 0.411133,0.164454 0.29997,0 0.47059,-0.06825 0.411132,-0.164454 z m -8.140429,-0.246679 c 0.167672,-0.202032 0.156434,-0.24668 -0.06209,-0.24668 -0.146749,0 -0.266816,0.111006 -0.266816,0.24668 0,0.135674 0.02794,0.246679 0.06209,0.246679 0.03415,0 0.154217,-0.111005 0.266816,-0.246679 z m 2.833029,-1.069046 C 30.741043,28.96 30.397492,28.531601 29.993391,28.531601 c -0.347297,0 -0.397627,0.481506 -0.112769,1.078859 0.202059,0.423723 0.366894,0.566715 0.612653,0.531467 0.2759,-0.03957 0.328163,-0.151466 0.291318,-0.623708 z m 1.202835,-0.339747 c 0.192842,-0.312026 -0.08841,-0.389021 -0.374824,-0.10261 -0.256373,0.256373 -0.256824,0.278004 -0.0058,0.278004 0.149717,0 0.320994,-0.07893 0.380614,-0.175394 z m 4.20564,-0.23985 c -0.0077,-0.211411 -0.676661,-0.313498 -0.676661,-0.103257 0,0.173212 0.32245,0.347243 0.546807,0.295119 0.07462,-0.01734 0.133054,-0.103674 0.129854,-0.191862 z m -7.731074,-0.784639 c -0.211074,-0.211073 -0.425121,-0.04794 -0.268854,0.204906 0.06053,0.09794 0.185396,0.131515 0.277476,0.07461 0.112322,-0.06942 0.109484,-0.161405 -0.0086,-0.279512 z m 7.301093,12.547149 c -0.0559,-0.09045 -0.02763,-0.164453 0.06282,-0.164453 0.09045,0 0.210189,0.074 0.26609,0.164453 0.0559,0.09045 0.02763,0.164453 -0.06282,0.164453 -0.09045,0 -0.210189,-0.074 -0.26609,-0.164453 z m 5.180273,-2.188819 c 0,-0.133534 0.116382,-0.287449 0.258628,-0.342032 0.180352,-0.06921 0.242568,-0.01645 0.205566,0.174343 -0.06751,0.348096 -0.464194,0.491397 -0.464194,0.167689 z m 0.608377,-0.928962 c 0.12613,-0.482325 0.417648,-0.61627 0.351059,-0.161303 -0.03022,0.206466 -0.141625,0.403915 -0.247569,0.438778 -0.122764,0.0404 -0.160297,-0.06024 -0.10349,-0.277475 z m 0.101505,-1.28134 c -0.05613,-0.158286 -0.2137,-0.417754 -0.350147,-0.576594 -0.136445,-0.158841 -0.208494,-0.328392 -0.160105,-0.376779 0.136845,-0.136845 1.115995,0.748522 1.115995,1.009104 0,0.331886 -0.484074,0.287349 -0.605743,-0.05573 z m -9.261444,-8.82965 c 0,-0.141012 0.074,-0.256385 0.164453,-0.256385 0.09045,0 0.164453,0.06964 0.164453,0.154747 0,0.08511 -0.074,0.200485 -0.164453,0.256385 -0.09045,0.0559 -0.164453,-0.01373 -0.164453,-0.154747 z m 0.49336,-1.151172 c 0,-0.141012 0.074,-0.256385 0.164453,-0.256385 0.09045,0 0.164453,0.06964 0.164453,0.154747 0,0.08511 -0.074,0.200485 -0.164453,0.256386 -0.09045,0.0559 -0.164453,-0.01374 -0.164453,-0.154748 z m -2.508179,-0.133045 c -0.03784,-0.113062 0.122506,-0.397965 0.356315,-0.633118 0.233808,-0.235153 0.568004,-0.636847 0.742658,-0.892653 0.315243,-0.46172 0.318715,-0.462497 0.477377,-0.106922 0.0879,0.197 0.296524,0.358181 0.4636,0.358181 0.212433,0 0.303775,0.120705 0.303775,0.401427 0,0.496626 -0.263336,0.679982 -0.588735,0.409925 -0.201544,-0.167266 -0.326823,-0.125695 -0.700721,0.232522 -0.486714,0.466302 -0.942071,0.565918 -1.054269,0.230638 z m 6.46161,-4.144542 c -0.334261,-0.402759 -0.137616,-0.825679 0.405923,-0.873009 0.270608,-0.02356 0.603018,0.03092 0.738692,0.121075 0.206932,0.137505 0.167183,0.229577 -0.246679,0.571401 -0.582905,0.481443 -0.638866,0.492694 -0.897936,0.180533 z m 6.900474,-0.830165 c 0,-0.135674 0.108684,-0.24668 0.241519,-0.24668 0.147119,0 0.204519,0.09642 0.146859,0.24668 -0.05206,0.135673 -0.160747,0.246679 -0.241519,0.246679 -0.08077,0 -0.146859,-0.111006 -0.146859,-0.246679 z M 38.07847,20.135382 c -0.362997,-0.365988 -0.217134,-0.641521 0.200414,-0.37858 0.29325,0.184665 0.48455,0.723691 0.250851,0.706822 -0.07447,-0.0054 -0.277538,-0.153085 -0.451265,-0.328242 z"
       style="fill:url(#linearGradient7701);fill-opacity:1" />
  </g>
</svg>
