# Blender v2.71 (sub 0) OBJ File: 'petunias.blend'
# www.blender.org
mtllib missile3.mtl
o Icosphere.001_Icosphere.002
v 0.041407 -0.079222 0.127435
v 0.133994 -0.079222 0.000000
v -0.108403 -0.079222 0.078759
v -0.108403 -0.079222 -0.078759
v 0.041407 -0.079222 -0.127435
v 0.309452 0.150000 0.000000
v 0.173362 0.150000 0.355981
v -0.268917 0.150000 0.220008
v -0.320414 0.150000 -0.220008
v 0.153866 0.150000 -0.394223
v 0.374410 0.293454 0.277222
v -0.054149 0.293454 0.448554
v -0.455337 0.293454 0.000000
v -0.125141 0.293454 -0.486796
v 0.354914 0.293454 -0.315463
v 0.307412 0.477118 0.228546
v -0.028559 0.477118 0.369795
v -0.372524 0.477118 -0.000000
v -0.099551 0.477118 -0.408037
v 0.287917 0.477118 -0.266788
v -0.035942 -0.100664 0.110618
v 0.094098 -0.100664 0.068366
v 0.084747 0.020968 0.216430
v 0.211357 0.020968 0.000000
v 0.094098 -0.100664 -0.068366
v -0.116311 -0.100664 0.000000
v -0.175633 0.020968 0.133761
v -0.035942 -0.100664 -0.110618
v -0.188507 0.020968 -0.133761
v 0.079873 0.020968 -0.225991
v 0.352806 0.221727 0.105812
v 0.347933 0.221727 -0.115373
v 0.109577 0.221727 0.431613
v 0.286157 0.221727 0.366217
v -0.363559 0.221727 0.160939
v -0.220345 0.221727 0.332147
v -0.289589 0.221727 -0.341707
v -0.415055 0.221727 -0.160939
v 0.261788 0.221727 -0.414019
v 0.072333 0.221727 -0.479415
v 0.401015 0.411096 0.297852
v -0.042096 0.411096 0.481934
v -0.486358 0.411096 -0.000000
v -0.130836 0.411096 -0.529736
v 0.376646 0.411096 -0.345654
v 0.168680 0.487171 0.320995
v 0.280425 0.487171 -0.009560
v -0.220656 0.487171 0.198385
v -0.277026 0.487171 -0.207946
v 0.131436 0.487171 -0.368797
v 0.000000 -0.164990 -0.000000
v 0.203758 0.046774 0.149078
v -0.060056 0.046774 0.241213
v -0.250367 0.046774 -0.000000
v -0.074254 0.046774 -0.248861
v 0.199859 0.046774 -0.156726
v 0.275180 0.387568 0.510829
v -0.358720 0.387568 0.315709
v -0.455312 0.387568 -0.323357
v 0.225890 0.387568 -0.587312
v 0.426597 0.387568 -0.007648
v 0.009469 0.517329 -0.007648
vt 0.562144 0.179142
vt 0.487293 0.177494
vt 0.490381 0.132570
vt 0.600813 0.154497
vt 0.709804 0.276856
vt 0.589178 0.243176
vt 0.488130 0.270121
vt 0.261380 0.436399
vt 0.248215 0.560067
vt 0.168452 0.608660
vt 0.217707 0.406516
vt 0.321055 0.226362
vt 0.327349 0.353011
vt 0.348611 0.494591
vt 0.402660 0.229614
vt 0.361587 0.230205
vt 0.371172 0.308484
vt 0.241307 0.382007
vt 0.433389 0.156757
vt 0.397704 0.210895
vt 0.421014 0.131463
vt 0.508855 0.106392
vt 0.486855 0.150722
vt 0.460269 0.236791
vt 0.376539 0.295747
vt 0.404712 0.352364
vt 0.270090 0.678405
vt 0.230772 0.769525
vt 0.341681 0.682165
vt 0.367738 0.855132
vt 0.607698 0.328921
vt 0.559971 0.378145
vt 0.678562 0.395410
vt 0.632844 0.529672
vt 0.373614 0.388268
vt 0.312852 0.463986
vt 0.445500 0.399638
vt 0.408183 0.551256
vt 0.536613 0.159593
vt 0.539295 0.217019
vt 0.575849 0.135719
vt 0.631218 0.248238
vt 0.435445 0.410202
vt 0.420667 0.519451
vt 0.480766 0.363385
vt 0.501254 0.521982
vt 0.768260 0.494385
vt 0.834276 0.480515
vt 0.883201 0.696345
vt 0.773355 0.621381
vt 0.511153 0.433103
vt 0.524390 0.547369
vt 0.241756 0.531304
vt 0.156421 0.522581
vt 0.274709 0.617058
vt 0.165451 0.664810
vt 0.530009 0.308895
vt 0.571128 0.379775
vt 0.399026 0.644338
vt 0.443869 0.702805
vt 0.722443 0.744189
vt 0.615260 0.734357
vt 0.765551 0.855220
vt 0.555425 0.912008
vt 0.537755 0.685498
vt 0.467555 0.737625
vt 0.355424 0.730636
vt 0.326922 0.821579
vt 0.622614 0.490862
vt 0.596534 0.625309
vt 0.684186 0.472744
vt 0.674627 0.702682
vt 0.528101 0.730031
vt 0.542417 0.831498
vn 0.208800 -0.743100 0.635700
vn -0.191300 -0.796100 0.574100
vn 0.000000 -1.000000 0.000000
vn 0.499600 -0.799100 0.334300
vn 0.646800 -0.692000 0.320400
vn 0.221800 -0.734500 0.641300
vn -0.221800 -0.683300 0.695500
vn 0.702500 -0.711600 -0.002500
vn 0.777300 -0.629100 -0.005500
vn 0.500500 -0.800300 -0.330100
vn 0.647600 -0.691600 -0.319700
vn -0.553100 -0.722900 0.414000
vn -0.601900 -0.798500 0.011400
vn -0.581300 -0.678500 0.449100
vn -0.719500 -0.692300 0.055700
vn -0.547000 -0.742200 -0.387200
vn -0.187500 -0.808800 -0.557400
vn -0.561800 -0.731600 -0.386100
vn -0.226500 -0.735500 -0.638600
vn 0.208000 -0.756200 -0.620400
vn 0.214300 -0.766000 -0.606100
vn 0.822400 -0.568800 -0.010200
vn 0.863600 -0.495700 0.092100
vn 0.864000 -0.486800 -0.128200
vn 0.965800 0.257600 -0.030500
vn 0.245800 -0.737100 0.629400
vn 0.003100 -0.565300 0.824900
vn 0.608100 -0.598700 0.521400
vn 0.437800 0.225800 0.870200
vn -0.598200 -0.637400 0.485600
vn -0.787900 -0.509200 0.346200
vn -0.463500 -0.503000 0.729500
vn -0.717400 0.269200 0.642500
vn -0.576500 -0.719900 -0.386400
vn -0.480800 -0.592900 -0.646000
vn -0.812300 -0.559900 -0.163300
vn -0.817400 0.240600 -0.523400
vn 0.223000 -0.775600 -0.590500
vn 0.599400 -0.605900 -0.523000
vn -0.038300 -0.632100 -0.773900
vn 0.383400 0.213900 -0.898400
vn 0.869100 -0.423800 0.254900
vn 0.876300 0.364100 0.315500
vn -0.269000 -0.412500 0.870300
vn -0.238900 0.378000 0.894400
vn -0.899700 -0.414400 0.136900
vn -0.916600 0.381200 0.120500
vn -0.310300 -0.506600 -0.804300
vn -0.319900 0.351300 -0.879900
vn 0.863000 -0.418600 -0.282600
vn 0.857600 0.372000 -0.355000
vn 0.353100 0.929600 0.105800
vn 0.116400 0.959500 0.256300
vn 0.337400 0.941300 -0.012300
vn 0.003200 1.000000 0.003700
vn -0.104000 0.937200 0.333000
vn -0.233100 0.948700 0.213400
vn -0.341500 0.938100 0.056600
vn -0.242100 0.958400 -0.151200
vn -0.116700 0.948600 -0.294200
vn 0.102900 0.964000 -0.245200
vn 0.343900 0.931500 -0.118300
usemtl None
s 1
f 1/1/1 21/2/2 51/3/3 22/4/4
f 1/1/1 22/4/4 52/5/5 23/6/6
f 1/1/1 23/6/6 53/7/7 21/2/2
f 2/8/8 24/9/9 52/10/5 22/11/4
f 2/8/8 22/11/4 51/12/3 25/13/10
f 2/8/8 25/13/10 56/14/11 24/9/9
f 3/15/12 26/16/13 51/3/3 21/2/2
f 3/15/12 21/2/2 53/7/7 27/17/14
f 3/15/12 27/17/14 54/18/15 26/16/13
f 4/19/16 28/20/17 51/12/3 26/21/13
f 4/19/16 26/21/13 54/22/15 29/23/18
f 4/19/16 29/23/18 55/24/19 28/20/17
f 5/25/20 25/13/10 51/12/3 28/20/17
f 5/25/20 28/20/17 55/24/19 30/26/21
f 5/25/20 30/26/21 56/14/11 25/13/10
f 6/27/22 31/28/23 52/10/5 24/9/9
f 6/27/22 24/9/9 56/14/11 32/29/24
f 6/27/22 32/29/24 61/30/25 31/28/23
f 7/31/26 33/32/27 53/7/7 23/6/6
f 7/31/26 23/6/6 52/5/5 34/33/28
f 7/31/26 34/33/28 57/34/29 33/32/27
f 8/35/30 35/36/31 54/18/15 27/17/14
f 8/35/30 27/17/14 53/7/7 36/37/32
f 8/35/30 36/37/32 58/38/33 35/36/31
f 9/39/34 37/40/35 55/24/19 29/23/18
f 9/39/34 29/23/18 54/22/15 38/41/36
f 9/39/34 38/41/36 59/42/37 37/40/35
f 10/43/38 39/44/39 56/14/11 30/26/21
f 10/43/38 30/26/21 55/24/19 40/45/40
f 10/43/38 40/45/40 60/46/41 39/44/39
f 11/47/42 34/33/28 52/5/5 31/48/23
f 11/47/42 31/48/23 61/49/25 41/50/43
f 11/47/42 41/50/43 57/34/29 34/33/28
f 12/51/44 36/37/32 53/7/7 33/32/27
f 12/51/44 33/32/27 57/34/29 42/52/45
f 12/51/44 42/52/45 58/38/33 36/37/32
f 13/53/46 38/54/36 54/18/15 35/36/31
f 13/53/46 35/36/31 58/38/33 43/55/47
f 13/53/46 43/55/47 59/56/37 38/54/36
f 14/57/48 40/45/40 55/24/19 37/40/35
f 14/57/48 37/40/35 59/42/37 44/58/49
f 14/57/48 44/58/49 60/46/41 40/45/40
f 15/59/50 32/29/24 56/14/11 39/44/39
f 15/59/50 39/44/39 60/46/41 45/60/51
f 15/59/50 45/60/51 61/30/25 32/29/24
f 16/61/52 46/62/53 57/34/29 41/50/43
f 16/61/52 41/50/43 61/49/25 47/63/54
f 16/61/52 47/63/54 62/64/55 46/62/53
f 17/65/56 48/66/57 58/38/33 42/52/45
f 17/65/56 42/52/45 57/34/29 46/62/53
f 17/65/56 46/62/53 62/64/55 48/66/57
f 18/67/58 49/68/59 59/56/37 43/55/47
f 18/67/58 43/55/47 58/38/33 48/66/57
f 18/67/58 48/66/57 62/64/55 49/68/59
f 19/69/60 50/70/61 60/46/41 44/58/49
f 19/69/60 44/58/49 59/42/37 49/71/59
f 19/69/60 49/71/59 62/72/55 50/70/61
f 20/73/62 47/74/54 61/30/25 45/60/51
f 20/73/62 45/60/51 60/46/41 50/70/61
f 20/73/62 50/70/61 62/72/55 47/74/54
