# Blender v2.73 (sub 0) OBJ File: 'fridge.blend'
# www.blender.org
mtllib missile4.mtl
o Cube
v -0.004018 -1.539076 -1.598999
v -0.092623 -1.376290 -1.670472
v 0.062386 -1.371633 -1.682737
v -0.064612 -1.492450 -1.649511
v -0.013196 -1.469448 -1.688562
v -0.017657 -1.374051 -1.708722
v 0.044996 -1.489158 -1.658183
v 1.415724 -1.330475 -0.527236
v 1.427981 -1.330045 -0.372156
v 1.349320 -1.497917 -0.443498
v 1.453956 -1.329295 -0.452236
v 1.436713 -1.425352 -0.450607
v 1.407001 -1.447695 -0.393025
v 1.398334 -1.447999 -0.502682
v 0.272986 -1.364241 0.981807
v 0.117977 -1.368897 0.994072
v 0.194325 -1.532113 0.910465
v 0.198020 -1.366480 1.020057
v 0.199300 -1.461989 0.999973
v 0.142398 -1.485184 0.969611
v 0.252006 -1.481891 0.960939
v -1.235361 -1.410056 -0.161429
v -1.247618 -1.410486 -0.316509
v -1.159013 -1.573272 -0.245036
v -1.273593 -1.411236 -0.236429
v -1.250609 -1.506084 -0.237982
v -1.219607 -1.526647 -0.295548
v -1.210940 -1.526343 -0.185890
v -0.018069 1.303693 -1.683800
v -0.173079 1.299036 -1.671535
v -0.094417 1.466909 -1.600194
v -0.098113 1.301275 -1.709786
v -0.099393 1.396784 -1.689701
v -0.152099 1.416686 -1.650667
v -0.042491 1.419979 -1.659340
v 1.335268 1.344851 -0.528299
v 1.258920 1.508067 -0.444693
v 1.347525 1.345281 -0.373220
v 1.310847 1.461138 -0.503839
v 1.350516 1.440879 -0.451746
v 1.319514 1.461442 -0.394181
v 1.373500 1.346031 -0.453299
v 0.192530 1.311085 0.980743
v 0.103925 1.473871 0.909270
v 0.037521 1.306428 0.993008
v 0.164519 1.427246 0.959782
v 0.113103 1.404243 0.998833
v 0.054911 1.423953 0.968455
v 0.117564 1.308846 1.018994
v -1.315817 1.265270 -0.162493
v -1.249413 1.432712 -0.246231
v -1.328074 1.264840 -0.317572
v -1.298427 1.382794 -0.187046
v -1.336806 1.360147 -0.239122
v -1.307094 1.382490 -0.296704
v -1.354049 1.264090 -0.237493
vt 0.302628 0.386294
vt 0.677686 0.386294
vt 0.677686 0.761353
vt 0.302628 0.761353
vt 0.299570 0.080530
vt 0.601999 0.080530
vt 0.601999 0.880097
vt 0.299570 0.880097
vt 0.304033 0.377520
vt 0.692990 0.378020
vt 0.614270 0.788501
vt 0.334570 0.775861
vt 0.230743 0.098160
vt 0.631675 0.081306
vt 0.634844 0.880404
vt 0.310797 0.881071
vt 0.294397 0.082635
vt 0.654222 0.086848
vt 0.620515 0.868587
vt 0.293062 0.868420
vt 0.112067 0.095917
vt 0.826930 0.108557
vt 0.905649 0.920160
vt 0.081530 0.919660
vt 0.286239 0.386294
vt 0.289246 0.372913
vt 0.302628 0.369905
vt 0.635009 0.868617
vt 0.631151 0.896504
vt 0.619227 0.902770
vt 0.080821 0.955586
vt 0.051562 0.948974
vt 0.046144 0.919568
vt 0.941036 0.920252
vt 0.937336 0.949194
vt 0.908463 0.955695
vt 0.313855 0.915375
vt 0.301722 0.909106
vt 0.296196 0.881193
vt 0.677686 0.369905
vt 0.691068 0.372913
vt 0.694075 0.386294
vt 0.649445 0.880282
vt 0.646889 0.908813
vt 0.635423 0.915230
vt 0.299570 0.915036
vt 0.288780 0.908625
vt 0.286355 0.880097
vt 0.694075 0.761353
vt 0.691068 0.774734
vt 0.677686 0.777742
vt 0.615214 0.880097
vt 0.612789 0.908625
vt 0.601999 0.915036
vt 0.292819 0.902734
vt 0.281176 0.896431
vt 0.278568 0.868390
vt 0.302628 0.777742
vt 0.289246 0.774734
vt 0.286239 0.761353
vt 0.080204 0.095434
vt 0.087126 0.066134
vt 0.112776 0.059991
vt 0.655509 0.052665
vt 0.668107 0.059087
vt 0.669760 0.087009
vt 0.335279 0.793337
vt 0.325155 0.789681
vt 0.321722 0.775378
vt 0.824116 0.073022
vt 0.850152 0.079992
vt 0.858793 0.109040
vt 0.627118 0.788984
vt 0.621966 0.803539
vt 0.611456 0.806369
vt 0.213663 0.098803
vt 0.213951 0.070750
vt 0.227685 0.063856
vt 0.631096 0.046480
vt 0.645497 0.052272
vt 0.648754 0.080662
vt 0.695804 0.360152
vt 0.709150 0.363451
vt 0.709360 0.378111
vt 0.286355 0.080530
vt 0.288780 0.052003
vt 0.299570 0.045591
vt 0.601998 0.045591
vt 0.612789 0.052003
vt 0.615214 0.080530
vt 0.287662 0.377428
vt 0.289591 0.363231
vt 0.303324 0.360043
vt 0.278859 0.082474
vt 0.281762 0.054468
vt 0.294641 0.048321
vn 0.030100 -0.999500 0.000400
vn -0.648900 -0.019200 0.760700
vn -0.030100 0.999500 -0.000400
vn 0.760300 0.023100 0.649200
vn -0.760300 -0.023100 -0.649200
vn 0.648900 0.019200 -0.760700
vn -0.010600 -0.883100 -0.469000
vn -0.437500 -0.612800 -0.658000
vn -0.056800 -0.453000 -0.889700
vn 0.364500 -0.588700 -0.721500
vn -0.564500 -0.182500 -0.805000
vn -0.074600 -0.121800 -0.989700
vn 0.440900 -0.152300 -0.884500
vn 0.809700 -0.141100 -0.569700
vn 0.992900 -0.089300 -0.078200
vn 0.903000 -0.423800 -0.070200
vn 0.676000 -0.579200 -0.455500
vn 0.889200 -0.138300 0.436200
vn 0.739400 -0.577000 0.346800
vn 0.495600 -0.867700 -0.036800
vn 0.574500 -0.147600 0.805100
vn 0.081800 -0.116300 0.989800
vn 0.083900 -0.448000 0.890000
vn 0.473500 -0.584900 0.658500
vn -0.431000 -0.177800 0.884700
vn -0.328400 -0.608900 0.722000
vn 0.063600 -0.880500 0.469700
vn -0.799700 -0.189000 0.569800
vn -0.985700 -0.148800 0.078300
vn -0.875900 -0.477200 0.070500
vn -0.640000 -0.618400 0.456000
vn -0.879200 -0.191800 -0.436100
vn -0.703400 -0.620700 -0.346400
vn -0.442600 -0.895900 0.037500
vn 0.431000 0.177800 -0.884700
vn -0.081800 0.116300 -0.989800
vn -0.083900 0.448000 -0.890000
vn 0.328400 0.608900 -0.722000
vn -0.574500 0.147600 -0.805100
vn -0.473500 0.584900 -0.658500
vn -0.063600 0.880500 -0.469700
vn 0.799700 0.189000 -0.569800
vn 0.640000 0.618400 -0.456000
vn 0.875900 0.477200 -0.070500
vn 0.985700 0.148800 -0.078300
vn 0.442600 0.895900 -0.037500
vn 0.703400 0.620700 0.346400
vn 0.879200 0.191800 0.436100
vn 0.564500 0.182500 0.805000
vn 0.437500 0.612800 0.658000
vn 0.056800 0.453000 0.889700
vn 0.074600 0.121800 0.989700
vn 0.010600 0.883100 0.469000
vn -0.364500 0.588700 0.721500
vn -0.440900 0.152300 0.884500
vn -0.809700 0.141100 0.569700
vn -0.676000 0.579200 0.455500
vn -0.903000 0.423800 0.070200
vn -0.992900 0.089300 0.078200
vn -0.495600 0.867700 0.036800
vn -0.739400 0.577000 -0.346800
vn -0.889200 0.138300 -0.436200
usemtl None
s off
f 1/1/1 10/2/1 17/3/1 24/4/1
f 45/5/2 50/6/2 22/7/2 16/8/2
f 51/9/3 44/10/3 37/11/3 31/12/3
f 38/13/4 43/14/4 15/15/4 9/16/4
f 52/17/5 30/18/5 2/19/5 23/20/5
f 29/21/6 36/22/6 8/23/6 3/24/6
s 1
f 1/1/7 4/25/8 5/26/9 7/27/10
f 2/19/11 6/28/12 5/29/9 4/30/8
f 3/24/13 7/31/10 5/32/9 6/33/12
f 8/23/14 11/34/15 12/35/16 14/36/17
f 9/16/18 13/37/19 12/38/16 11/39/15
f 10/2/20 14/40/17 12/41/16 13/42/19
f 15/15/21 18/43/22 19/44/23 21/45/24
f 16/8/25 20/46/26 19/47/23 18/48/22
f 17/3/27 21/49/24 19/50/23 20/51/26
f 22/7/28 25/52/29 26/53/30 28/54/31
f 23/20/32 27/55/33 26/56/30 25/57/29
f 24/4/34 28/58/31 26/59/30 27/60/33
f 29/21/35 32/61/36 33/62/37 35/63/38
f 30/18/39 34/64/40 33/65/37 32/66/36
f 31/12/41 35/67/38 33/68/37 34/69/40
f 36/22/42 39/70/43 40/71/44 42/72/45
f 37/11/46 41/73/47 40/74/44 39/75/43
f 38/13/48 42/76/45 40/77/44 41/78/47
f 43/14/49 46/79/50 47/80/51 49/81/52
f 44/10/53 48/82/54 47/83/51 46/84/50
f 45/5/55 49/85/52 47/86/51 48/87/54
f 50/6/56 53/88/57 54/89/58 56/90/59
f 51/9/60 55/91/61 54/92/58 53/93/57
f 52/17/62 56/94/59 54/95/58 55/96/61
f 2/19/11 30/18/39 32/66/36 6/28/12
f 6/33/12 32/61/36 29/21/35 3/24/13
f 31/12/41 37/11/46 39/75/43 35/67/38
f 35/63/38 39/70/43 36/22/42 29/21/35
f 38/13/48 9/16/18 11/39/15 42/76/45
f 42/72/45 11/34/15 8/23/14 36/22/42
f 10/2/20 1/1/7 7/27/10 14/40/17
f 14/36/17 7/31/10 3/24/13 8/23/14
f 37/11/46 44/10/53 46/84/50 41/73/47
f 41/78/47 46/79/50 43/14/49 38/13/48
f 45/5/55 16/8/25 18/48/22 49/85/52
f 49/81/52 18/43/22 15/15/21 43/14/49
f 17/3/27 10/2/20 13/42/19 21/49/24
f 21/45/24 13/37/19 9/16/18 15/15/21
f 44/10/53 51/9/60 53/93/57 48/82/54
f 48/87/54 53/88/57 50/6/56 45/5/55
f 52/17/62 23/20/32 25/57/29 56/94/59
f 56/90/59 25/52/29 22/7/28 50/6/56
f 24/4/34 17/3/27 20/51/26 28/58/31
f 28/54/31 20/46/26 16/8/25 22/7/28
f 51/9/60 31/12/41 34/69/40 55/91/61
f 55/96/61 34/64/40 30/18/39 52/17/62
f 1/1/7 24/4/34 27/60/33 4/25/8
f 4/30/8 27/55/33 23/20/32 2/19/11
